<?xml version="1.0" encoding="UTF-8"?>
<svg version="1.1" xmlns="http://www.w3.org/2000/svg" width="694" height="771">
<path d="M0 0 C229.02 0 458.04 0 694 0 C694 254.43 694 508.86 694 771 C464.98 771 235.96 771 0 771 C0 516.57 0 262.14 0 0 Z " fill="#FEFEFE" transform="translate(0,0)"/>
<path d="M0 0 C2.11669793 0.43375372 4.23620911 0.79784247 6.36865234 1.14550781 C19.05812104 3.22436285 32.08013896 5.39627725 44.20068359 9.77832031 C46.62374301 10.62023079 49.10771841 11.15863335 51.59912109 11.75878906 C55.03194771 12.68554257 58.41345327 13.75861921 61.79443359 14.85644531 C62.44492676 15.06188965 63.09541992 15.26733398 63.765625 15.47900391 C67.38660927 16.67476209 70.07430344 18.06107883 73.04443359 20.41894531 C75.08160152 21.06404849 77.11901712 21.70838063 79.15771484 22.34863281 C88.5600582 25.834752 97.60882919 30.88770962 106.02880859 36.29003906 C108.04223186 37.41771217 109.78944607 37.97708965 112.04443359 38.41894531 C112.04443359 39.07894531 112.04443359 39.73894531 112.04443359 40.41894531 C113.22005859 40.69738281 113.22005859 40.69738281 114.41943359 40.98144531 C118.68291104 42.67213464 121.93404082 45.05132668 125.63037109 47.73144531 C128.35069718 49.63303248 131.02257157 51.06705967 134.04443359 52.41894531 C134.04443359 53.07894531 134.04443359 53.73894531 134.04443359 54.41894531 C134.60001953 54.67546875 135.15560547 54.93199219 135.72802734 55.19628906 C150.35089881 62.91460065 163.43704884 75.81156056 175.04443359 87.41894531 C175.99318359 88.18207031 176.94193359 88.94519531 177.91943359 89.73144531 C180.98073065 92.24108732 183.47795717 95.08284638 186.03662109 98.09472656 C189.25706004 101.82266658 192.64364725 105.40058048 196.00537109 109.00097656 C198.04443359 111.41894531 198.04443359 111.41894531 199.04443359 114.41894531 C199.82818359 115.20269531 200.61193359 115.98644531 201.41943359 116.79394531 C203.86118916 119.23570087 205.47529833 121.36326084 207.04443359 124.41894531 C207.04443359 125.07894531 207.04443359 125.73894531 207.04443359 126.41894531 C207.70443359 126.41894531 208.36443359 126.41894531 209.04443359 126.41894531 C210.56005859 128.47363281 210.56005859 128.47363281 212.29443359 131.29394531 C213.22255859 132.80214844 213.22255859 132.80214844 214.16943359 134.34082031 C215.09755859 135.86449219 215.09755859 135.86449219 216.04443359 137.41894531 C216.87974609 138.72605469 216.87974609 138.72605469 217.73193359 140.05957031 C221.04910174 145.33386767 223.38914275 150.40762595 225.04443359 156.41894531 C225.70443359 156.41894531 226.36443359 156.41894531 227.04443359 156.41894531 C227.50333984 157.54171875 227.96224609 158.66449219 228.43505859 159.82128906 C232.21148984 169.10982956 232.21148984 169.10982956 236.23193359 178.29394531 C240.16865805 187.04096133 242.9233917 196.04547268 245.16943359 205.35644531 C245.42080078 206.33162109 245.67216797 207.30679688 245.93115234 208.31152344 C250.19764062 225.88007331 250.51702674 244.05205938 250.54443359 262.04394531 C250.54711243 263.09421906 250.54979126 264.1444928 250.55255127 265.22659302 C250.54346947 281.69768873 249.37289599 296.70612142 244.04443359 312.41894531 C243.76164551 313.2797168 243.47885742 314.14048828 243.1875 315.02734375 C241.9499467 318.75937405 240.65900763 322.45769509 239.24365234 326.12597656 C238.22742237 328.91647125 237.51765082 331.496133 237.04443359 334.41894531 C236.38443359 334.41894531 235.72443359 334.41894531 235.04443359 334.41894531 C234.92841797 335.13179687 234.81240234 335.84464844 234.69287109 336.57910156 C234.00736723 339.58127814 232.9736403 342.07018554 231.66943359 344.85644531 C231.00234375 346.28730469 231.00234375 346.28730469 230.32177734 347.74707031 C228.93054899 350.65716266 227.51785045 353.54965986 226.04443359 356.41894531 C225.38443359 356.41894531 224.72443359 356.41894531 224.04443359 356.41894531 C223.78919922 357.12792969 223.53396484 357.83691406 223.27099609 358.56738281 C218.70472412 369.18323805 210.30754025 380.36028665 202.04443359 388.41894531 C200.70616055 390.08164818 199.37253574 391.74810713 198.04443359 393.41894531 C196.41943359 395.23144531 196.41943359 395.23144531 195.04443359 396.41894531 C194.38443359 396.41894531 193.72443359 396.41894531 193.04443359 396.41894531 C193.04443359 397.07894531 193.04443359 397.73894531 193.04443359 398.41894531 C191.47021484 399.96972656 191.47021484 399.96972656 189.35693359 401.73144531 C187.05110675 403.66382374 184.88126429 405.58747831 182.78662109 407.75097656 C179.36067937 411.08419337 175.66868421 413.91851746 171.85693359 416.79394531 C171.09590332 417.37047852 170.33487305 417.94701172 169.55078125 418.54101562 C161.67631576 424.4841984 153.71782137 430.09279041 145.29443359 435.23144531 C144.66778809 435.61719727 144.04114258 436.00294922 143.39550781 436.40039062 C139.70983262 438.61042305 136.20332357 440.21337751 132.04443359 441.41894531 C132.04443359 442.07894531 132.04443359 442.73894531 132.04443359 443.41894531 C130.61014358 444.09249031 129.17186303 444.75754232 127.73193359 445.41894531 C126.93142578 445.79019531 126.13091797 446.16144531 125.30615234 446.54394531 C123.04443359 447.41894531 123.04443359 447.41894531 120.04443359 447.41894531 C120.04443359 448.07894531 120.04443359 448.73894531 120.04443359 449.41894531 C119.39216797 449.67289063 118.73990234 449.92683594 118.06787109 450.18847656 C117.19388672 450.53265625 116.31990234 450.87683594 115.41943359 451.23144531 C114.56091797 451.56789063 113.70240234 451.90433594 112.81787109 452.25097656 C109.98654517 453.40187069 109.98654517 453.40187069 107.12646484 454.91894531 C103.91607354 456.48141713 100.7716772 457.57131397 97.35693359 458.60644531 C96.23931641 458.950625 95.12169922 459.29480469 93.97021484 459.64941406 C91.04443359 460.41894531 91.04443359 460.41894531 88.04443359 460.41894531 C88.04443359 461.07894531 88.04443359 461.73894531 88.04443359 462.41894531 C87.11759766 462.69609375 86.19076172 462.97324219 85.23583984 463.25878906 C84.03830078 463.62101562 82.84076172 463.98324219 81.60693359 464.35644531 C80.41197266 464.71609375 79.21701172 465.07574219 77.98583984 465.44628906 C75.18575814 466.12783674 75.18575814 466.12783674 74.04443359 467.41894531 C71.9896311 467.89127912 69.92490901 468.32060447 67.85693359 468.73144531 C62.95779738 469.74778173 58.21311154 470.90865197 53.41943359 472.35644531 C37.85913886 476.89125868 21.8709439 479.23658704 5.79833984 481.09423828 C3.30359994 481.38838758 0.81540407 481.7144446 -1.67431641 482.04785156 C-26.12611233 485.08098931 -52.44862872 484.94822515 -76.86474609 481.69677734 C-78.9370962 481.42139967 -81.01088468 481.17937619 -83.08837891 480.94628906 C-87.0521464 480.49398894 -91.00269567 479.9585063 -94.95556641 479.41894531 C-95.60444824 479.3412793 -96.25333008 479.26361328 -96.921875 479.18359375 C-108.83502687 477.75690356 -120.35220314 474.95634615 -131.95556641 471.98144531 C-132.71350494 471.78839813 -133.47144348 471.59535095 -134.25234985 471.39645386 C-142.21885989 469.35693501 -150.02110825 467.19277594 -157.71533203 464.26098633 C-160.5040806 463.21277427 -163.33576079 462.40230671 -166.20556641 461.60644531 C-172.00555135 459.86714278 -177.33343373 457.53969595 -182.75537109 454.88061523 C-186.42302765 453.0863048 -190.05349592 451.62233193 -193.95556641 450.41894531 C-193.95556641 449.75894531 -193.95556641 449.09894531 -193.95556641 448.41894531 C-194.96876953 448.12890625 -194.96876953 448.12890625 -196.00244141 447.83300781 C-197.34048828 447.44242188 -197.34048828 447.44242188 -198.70556641 447.04394531 C-199.58728516 446.78871094 -200.46900391 446.53347656 -201.37744141 446.27050781 C-203.71637213 445.49795191 -205.78999202 444.58268856 -207.95556641 443.41894531 C-207.95556641 442.75894531 -207.95556641 442.09894531 -207.95556641 441.41894531 C-209.45410156 441.06316406 -209.45410156 441.06316406 -210.98291016 440.70019531 C-215.29791156 439.46083764 -218.77247734 437.34758787 -222.51806641 434.91894531 C-223.20916504 434.47824707 -223.90026367 434.03754883 -224.61230469 433.58349609 C-253.84061284 414.76380602 -253.84061284 414.76380602 -255.95556641 408.41894531 C-257.03837891 408.04769531 -257.03837891 408.04769531 -258.14306641 407.66894531 C-261.58999375 406.1369776 -263.00902621 404.19373113 -265.33056641 401.29785156 C-267.51958357 398.76680047 -270.01557821 396.75032127 -272.63525391 394.68066406 C-273.07095703 394.26429688 -273.50666016 393.84792969 -273.95556641 393.41894531 C-273.95556641 392.75894531 -273.95556641 392.09894531 -273.95556641 391.41894531 C-274.94556641 391.08894531 -275.93556641 390.75894531 -276.95556641 390.41894531 C-278.79823052 388.30927095 -280.51293456 386.20593162 -282.20556641 383.98144531 C-282.69500732 383.3469043 -283.18444824 382.71236328 -283.6887207 382.05859375 C-289.43081841 374.56898337 -294.76111812 366.94143332 -299.54541016 358.80175781 C-300.87076538 356.5622379 -302.24524969 354.36372618 -303.64306641 352.16894531 C-310.95556641 340.49707031 -310.95556641 340.49707031 -310.95556641 334.41894531 C-311.61556641 334.41894531 -312.27556641 334.41894531 -312.95556641 334.41894531 C-323.94692736 302.47132838 -323.94692736 302.47132838 -324.95556641 286.41894531 C-325.45056641 284.93394531 -325.45056641 284.93394531 -325.95556641 283.41894531 C-329.62259639 256.84429596 -328.21610034 226.02978989 -319.95556641 200.41894531 C-319.70758301 199.64760254 -319.45959961 198.87625977 -319.20410156 198.08154297 C-311.04342523 172.82497293 -311.04342523 172.82497293 -305.95556641 164.41894531 C-304.87085758 161.77683345 -303.91379943 159.1111238 -302.95556641 156.41894531 C-302.29556641 156.41894531 -301.63556641 156.41894531 -300.95556641 156.41894531 C-300.95556641 155.09894531 -300.95556641 153.77894531 -300.95556641 152.41894531 C-300.29556641 152.41894531 -299.63556641 152.41894531 -298.95556641 152.41894531 C-298.84341797 151.69320312 -298.73126953 150.96746094 -298.61572266 150.21972656 C-297.92595253 147.29330538 -296.90045827 145.19606722 -295.39306641 142.60644531 C-294.93802734 141.81625 -294.48298828 141.02605469 -294.01416016 140.21191406 C-293.66482422 139.62023437 -293.31548828 139.02855469 -292.95556641 138.41894531 C-292.29556641 138.41894531 -291.63556641 138.41894531 -290.95556641 138.41894531 C-290.72869141 137.59394531 -290.50181641 136.76894531 -290.26806641 135.91894531 C-288.70615583 131.75385046 -286.72706534 127.91885101 -283.95556641 124.41894531 C-283.29556641 124.41894531 -282.63556641 124.41894531 -281.95556641 124.41894531 C-281.75576172 123.75894531 -281.55595703 123.09894531 -281.35009766 122.41894531 C-279.39889919 118.22140911 -276.58939536 114.96369625 -273.64306641 111.41894531 C-273.07394531 110.72027344 -272.50482422 110.02160156 -271.91845703 109.30175781 C-268.76836547 105.46812169 -265.5031788 101.89476791 -261.95556641 98.41894531 C-260.69721005 96.98875458 -259.44741538 95.55099278 -258.20556641 94.10644531 C-253.80194257 89.17557478 -249.0835899 84.63351214 -244.26806641 80.10644531 C-243.54329102 79.42477295 -242.81851563 78.74310059 -242.07177734 78.04077148 C-230.68574403 67.41894531 -230.68574403 67.41894531 -227.95556641 67.41894531 C-227.95556641 66.75894531 -227.95556641 66.09894531 -227.95556641 65.41894531 C-226.64020272 64.4843448 -225.3134961 63.56340825 -223.94775391 62.70410156 C-220.58537377 60.53503673 -217.37219621 58.1497268 -214.12744141 55.80957031 C-211.95556641 54.41894531 -211.95556641 54.41894531 -209.95556641 54.41894531 C-209.95556641 53.75894531 -209.95556641 53.09894531 -209.95556641 52.41894531 C-207.5268015 50.74351939 -205.10364713 49.19042499 -202.58056641 47.66894531 C-201.47346313 46.99134155 -201.47346313 46.99134155 -200.34399414 46.30004883 C-198.87286506 45.401124 -197.39983305 44.50530512 -195.92480469 43.61279297 C-194.36469972 42.66698175 -192.81289955 41.7074735 -191.26416016 40.74316406 C-186.04812508 37.52282936 -180.67640488 34.6124579 -175.26806641 31.73144531 C-174.19794312 31.15994751 -174.19794312 31.15994751 -173.10620117 30.5769043 C-168.79775044 28.30521216 -164.44848687 26.30893848 -159.95556641 24.41894531 C-158.2224094 23.62508968 -156.49077152 22.82791319 -154.76025391 22.02832031 C-108.15838717 0.82692701 -50.78316839 -10.65953262 0 0 Z " fill="#010101" transform="translate(393.95556640625,233.5810546875)"/>
<path d="M0 0 C0.7876474 -0.00133942 1.5752948 -0.00267883 2.3868103 -0.00405884 C19.92796992 0.00230325 37.25878969 1.36331902 54.6875 3.25 C55.83057617 3.3727832 56.97365234 3.49556641 58.15136719 3.62207031 C73.08735131 5.26852104 87.8942704 7.62921733 102.6875 10.25 C103.41839844 10.37874512 104.14929688 10.50749023 104.90234375 10.64013672 C109.50779111 11.4582096 114.09995452 12.33769833 118.6875 13.25 C119.57904785 13.42644043 120.4705957 13.60288086 121.38916016 13.78466797 C138.30721458 17.15592786 155.29752374 20.78667458 171.6875 26.25 C171.6875 26.91 171.6875 27.57 171.6875 28.25 C172.38230469 28.37375 173.07710937 28.4975 173.79296875 28.625 C192.02928277 32.56266565 210.72295459 42.9686256 222.15625 57.8046875 C224.22225572 61.10397215 224.6875 63.39294994 224.6875 67.25 C225.3475 67.25 226.0075 67.25 226.6875 67.25 C235.34350021 84.56200043 221.24254313 118.2673213 216.1875 135.375 C215.89230469 136.38175781 215.59710937 137.38851562 215.29296875 138.42578125 C214.4288104 141.36848787 213.55936089 144.30956713 212.6875 147.25 C212.41156006 148.18295898 212.13562012 149.11591797 211.85131836 150.07714844 C211.58971924 150.95661133 211.32812012 151.83607422 211.05859375 152.7421875 C210.71332642 153.90403564 210.71332642 153.90403564 210.36108398 155.08935547 C209.28625101 158.53707995 208.00584356 161.88951642 206.6875 165.25 C206.42453125 165.9615625 206.1615625 166.673125 205.890625 167.40625 C203.0212627 174.95720343 199.35394823 182.08417529 195.69238281 189.27246094 C194.17556581 192.25745067 192.6820566 195.2538036 191.1875 198.25 C190.35416667 199.91666667 189.52083333 201.58333333 188.6875 203.25 C188.0275 203.25 187.3675 203.25 186.6875 203.25 C186.46707031 204.11367188 186.24664063 204.97734375 186.01953125 205.8671875 C184.4749892 209.78969019 182.25002667 212.38924854 179.375 215.375 C178.90126953 215.88675781 178.42753906 216.39851562 177.93945312 216.92578125 C170.59670899 224.74063069 164.34928538 228.33807174 153.625 228.8125 C146.45252323 228.81855857 139.7348716 227.34260217 132.8125 225.5625 C131.86238037 225.31894775 130.91226074 225.07539551 129.93334961 224.82446289 C123.405947 223.02119039 117.65552916 220.41655979 111.6875 217.25 C110.35749963 216.61793845 109.02473385 215.99161042 107.6875 215.375 C104.43245897 213.76391909 101.57198572 211.80772955 98.625 209.6875 C94.76779799 206.91476968 91.07313704 205.09658402 86.6875 203.25 C82.95814685 201.01479803 79.33233743 198.61985528 75.6875 196.25 C66.30910487 190.2149967 56.72078181 185.09276503 46.6875 180.25 C46.6875 179.59 46.6875 178.93 46.6875 178.25 C45.0478125 178.064375 45.0478125 178.064375 43.375 177.875 C39.6875 177.25 39.6875 177.25 36.6875 175.25 C34.85033788 174.69074212 32.99241623 174.19798512 31.125 173.75 C30.15433594 173.5128125 29.18367187 173.275625 28.18359375 173.03125 C26.45302734 172.64453125 26.45302734 172.64453125 24.6875 172.25 C23.94209961 172.07645996 23.19669922 171.90291992 22.42871094 171.72412109 C16.26602284 170.3709511 10.36626416 169.86430707 4.0625 169.875 C2.63442017 169.87632935 2.63442017 169.87632935 1.17749023 169.87768555 C-10.14697975 170.06498473 -19.92821623 172.72042842 -30.3125 177.25 C-31.95009187 177.83606013 -33.59493086 178.40278535 -35.25 178.9375 C-36.40822266 179.31455078 -36.40822266 179.31455078 -37.58984375 179.69921875 C-38.44255859 179.97185547 -38.44255859 179.97185547 -39.3125 180.25 C-39.3125 180.91 -39.3125 181.57 -39.3125 182.25 C-40.34375 182.683125 -41.375 183.11625 -42.4375 183.5625 C-44.81926363 184.58051188 -47.11712041 185.65231021 -49.4375 186.8125 C-52.02512512 188.10631256 -54.61203126 189.21746784 -57.3125 190.25 C-57.3125 190.91 -57.3125 191.57 -57.3125 192.25 C-58.00214844 192.60191406 -58.69179688 192.95382812 -59.40234375 193.31640625 C-65.09764644 196.3085886 -70.15604302 199.44870318 -75.046875 203.63671875 C-77.37063549 205.29139648 -79.70293055 206.29421795 -82.3359375 207.36352539 C-86.22045255 209.10570352 -89.79528959 211.43193613 -93.4375 213.625 C-100.89415874 218.0322235 -108.09147289 221.47820463 -116.3125 224.25 C-117.73093274 224.8080316 -119.14783906 225.36997457 -120.5625 225.9375 C-131.74138619 229.85011017 -146.03531058 231.80044486 -157.3125 227.25 C-164.7202351 222.83969069 -169.86086705 216.56426341 -174.3125 209.25 C-174.3125 208.59 -174.3125 207.93 -174.3125 207.25 C-174.9725 207.25 -175.6325 207.25 -176.3125 207.25 C-179.3125 201.5 -179.3125 201.5 -179.3125 199.25 C-179.9725 199.25 -180.6325 199.25 -181.3125 199.25 C-184.66032974 194.00506674 -186.25763949 189.37096691 -187.3125 183.25 C-187.9725 183.25 -188.6325 183.25 -189.3125 183.25 C-189.65861328 182.28513672 -189.65861328 182.28513672 -190.01171875 181.30078125 C-191.85238707 176.20074769 -193.73387994 171.12041601 -195.6875 166.0625 C-196.10902344 164.9590625 -196.53054687 163.855625 -196.96484375 162.71875 C-197.86744124 160.39554255 -198.79750614 158.08283075 -199.75390625 155.78125 C-204.42562486 144.31597802 -206.98961113 132.46096801 -209.60180664 120.38574219 C-210.31556615 117.23647146 -211.12231794 114.12229881 -211.9453125 111 C-213.17904485 106.13221251 -213.8294345 101.5097524 -214 96.5 C-214.03416016 95.79101562 -214.06832031 95.08203125 -214.10351562 94.3515625 C-214.18392323 92.6515159 -214.24990727 90.95079569 -214.3125 89.25 C-214.9725 89.25 -215.6325 89.25 -216.3125 89.25 C-216.83557753 73.63516697 -214.96621165 62.62273338 -204.58203125 50.17578125 C-200.71787188 46.0994026 -196.35095344 42.7634354 -191.3125 40.25 C-190.6525 40.25 -189.9925 40.25 -189.3125 40.25 C-189.3125 39.59 -189.3125 38.93 -189.3125 38.25 C-177.48491379 31.25 -177.48491379 31.25 -171.3125 31.25 C-171.3125 30.59 -171.3125 29.93 -171.3125 29.25 C-157.42274967 24.56662467 -143.5663146 20.68408489 -129.20996094 17.71142578 C-127.24147594 17.30748851 -127.24147594 17.30748851 -125.3125 16.25 C-123.81535167 16.0945269 -122.31438654 15.97480892 -120.8125 15.875 C-117.19687748 15.54959397 -114.00812463 14.94773063 -110.5625 13.8125 C-105.28883236 12.0908272 -100.00921316 11.42374567 -94.51171875 10.77734375 C-91.40401139 10.39670626 -91.40401139 10.39670626 -89.05029297 9.27734375 C-85.78183058 8.05086883 -82.7779614 7.67473519 -79.30859375 7.28515625 C-78.63711304 7.20726868 -77.96563232 7.1293811 -77.27380371 7.0491333 C-75.84090112 6.8833985 -74.40764858 6.72066602 -72.97409058 6.56069946 C-69.23109796 6.14299671 -65.49054325 5.70464704 -61.75 5.265625 C-60.64627296 5.13665581 -60.64627296 5.13665581 -59.52024841 5.00508118 C-53.03893227 4.23829181 -46.58812344 3.31055696 -40.15600586 2.20141602 C-26.94014947 0.03859419 -13.36380125 0.01369333 0 0 Z " fill="#FDFDFE" transform="translate(353.3125,366.75)"/>
<path d="M0 0 C0.75580353 0.4167952 1.51160706 0.83359039 2.29031372 1.26301575 C10.88278638 6.36684752 17.42903825 12.93145496 24.3671875 20.01171875 C25.61648093 21.27103961 26.86675403 22.52938928 28.11795044 23.78681946 C31.38310268 27.07273588 34.63646623 30.37006522 37.88690186 33.67053223 C43.10574507 38.96515946 48.34376738 44.24083392 53.57956314 49.51868629 C55.39791086 51.35463454 57.21191733 53.19478026 59.02511597 55.03581238 C60.14152819 56.16544751 61.25799076 57.29503289 62.37451172 58.42456055 C62.87224594 58.93217422 63.36998016 59.4397879 63.88279724 59.96278381 C66.76824783 62.87525029 69.77027122 65.47873297 73 68 C75.82004321 70.67542561 78.39539153 73.4514463 80.875 76.4375 C83.45178795 79.4978497 86.25829882 81.98524132 89.3359375 84.52734375 C91.88189378 86.78045529 93.87015674 89.35208675 96 92 C97.31543863 93.35099103 98.64175118 94.69205669 100 96 C99 99 99 99 97.22265625 100.16796875 C96.50980469 100.50441406 95.79695312 100.84085937 95.0625 101.1875 C93.99708984 101.70376953 93.99708984 101.70376953 92.91015625 102.23046875 C91 103 91 103 89 103 C89 103.66 89 104.32 89 105 C83.58823529 109 83.58823529 109 81 109 C81 109.66 81 110.32 81 111 C78.953125 112.65625 78.953125 112.65625 76.25 114.5 C75.36828125 115.1084375 74.4865625 115.716875 73.578125 116.34375 C71.42518314 117.72685204 69.31454668 118.91843613 67 120 C67 120.66 67 121.32 67 122 C65.13671875 123.69140625 65.13671875 123.69140625 62.6875 125.5625 C61.88699219 126.18253906 61.08648437 126.80257812 60.26171875 127.44140625 C58 129 58 129 55 130 C55 130.66 55 131.32 55 132 C53.390625 133.5859375 53.390625 133.5859375 51.25 135.375 C48.93096298 137.33757727 46.74780716 139.2588295 44.625 141.4375 C43 143 43 143 41 143 C40.731875 143.639375 40.46375 144.27875 40.1875 144.9375 C39 147 39 147 36 148 C34.33333333 146.33333333 32.66666667 144.66666667 31 143 C30.236875 142.278125 29.47375 141.55625 28.6875 140.8125 C27 139 27 139 27 137 C26.43015381 136.75612549 25.86030762 136.51225098 25.27319336 136.26098633 C22.58745834 134.7711548 20.78524827 133.01094824 18.62890625 130.82421875 C17.39624023 129.58188477 17.39624023 129.58188477 16.13867188 128.31445312 C15.28853516 127.44755859 14.43839844 126.58066406 13.5625 125.6875 C12.71623047 124.83220703 11.86996094 123.97691406 10.99804688 123.09570312 C9.37035804 121.45016962 7.74492487 119.80240096 6.12207031 118.15209961 C4.43229303 116.43841039 2.73170045 114.73806481 1.01953125 113.046875 C-1 111 -1 111 -2.875 108.5625 C-5.13157284 105.84133864 -7.56217204 103.73131032 -10.265625 101.47265625 C-13.43805168 98.77895162 -16.28767808 95.93338735 -18.8125 92.625 C-21.38935747 89.53277103 -24.28903683 87.10336568 -27.390625 84.55078125 C-27.92171875 84.03902344 -28.4528125 83.52726562 -29 83 C-29 82.34 -29 81.68 -29 81 C-29.556875 80.773125 -30.11375 80.54625 -30.6875 80.3125 C-33.00075241 78.99957295 -34.63534613 77.5202347 -36.45703125 75.59765625 C-37.62886322 74.38429099 -38.84266285 73.21129297 -40.07421875 72.05859375 C-49.45363474 63.15690692 -57.19421407 52.49973689 -57.56933594 39.19970703 C-57.56708008 38.41192871 -57.56482422 37.62415039 -57.5625 36.8125 C-57.5615332 35.9860498 -57.56056641 35.15959961 -57.55957031 34.30810547 C-57.27801104 24.37446289 -53.52010236 16.50987122 -47 9 C-34.95349876 -2.07909578 -15.29261485 -8.43862739 0 0 Z " fill="#0C2395" transform="translate(93,175)"/>
<path d="M0 0 C2.18503407 0.43866639 4.35415759 0.78575876 6.56225586 1.08300781 C28.49794583 4.03802141 49.41495004 10.32977065 69.93359375 18.51367188 C72.13577943 19.3817926 74.34874337 20.20215957 76.57397461 21.00878906 C80.54347448 22.48848091 84.2950185 24.3042935 88.06616211 26.22753906 C88.75387695 26.57461914 89.4415918 26.92169922 90.15014648 27.27929688 C95.6683564 30.07916423 101.11846918 32.99445351 106.55053711 35.95800781 C108.88789571 37.2138538 111.2359609 38.39549892 113.62866211 39.54003906 C117.3061892 41.34802832 120.61896124 43.57230845 123.99194336 45.89160156 C127.40015125 48.15630271 130.94772421 50.16504455 134.50756836 52.18066406 C135.1250293 52.60863281 135.74249023 53.03660156 136.37866211 53.47753906 C136.37866211 54.13753906 136.37866211 54.79753906 136.37866211 55.47753906 C137.48661133 55.87585938 137.48661133 55.87585938 138.61694336 56.28222656 C141.3461703 57.46347613 143.26111708 58.74293426 145.56616211 60.60253906 C146.73018555 61.53453125 146.73018555 61.53453125 147.91772461 62.48535156 C148.72983398 63.14277344 149.54194336 63.80019531 150.37866211 64.47753906 C151.21139648 65.13496094 152.04413086 65.79238281 152.90209961 66.46972656 C158.20005482 70.65918653 163.32755082 74.99556708 168.37866211 79.47753906 C169.77432267 80.68607195 171.17015534 81.8944061 172.56616211 83.10253906 C175.6317864 85.77897277 178.50084748 88.59972443 181.37866211 91.47753906 C182.16499023 92.08082031 182.95131836 92.68410156 183.76147461 93.30566406 C186.44149834 95.52968376 188.4188693 97.80455722 190.56616211 100.54003906 C193.72824861 104.4952735 196.98762984 108.27428984 200.44116211 111.97753906 C205.22537472 117.18930842 209.31979552 122.69346162 213.37866211 128.47753906 C214.17718511 129.57163873 214.97806696 130.66401977 215.78100586 131.75488281 C221.85012554 140.03748772 227.27701327 148.56935725 232.37866211 157.47753906 C232.79680176 158.20553711 233.21494141 158.93353516 233.64575195 159.68359375 C239.77227128 170.398709 245.75394438 181.16514983 250.00366211 192.79003906 C251.01444793 195.50078285 252.0405045 197.82211321 253.37866211 200.35253906 C255.33788793 204.14434873 256.50746339 207.98016136 257.64819336 212.08300781 C258.32142586 214.28991437 259.14351702 216.27080713 260.12866211 218.35253906 C261.37866211 221.47753906 261.37866211 221.47753906 260.37866211 225.47753906 C256.41866211 225.80753906 252.45866211 226.13753906 248.37866211 226.47753906 C246.15557286 221.68934683 244.14667024 216.90156411 242.35717773 211.93310547 C239.74972014 204.71016831 236.72448883 197.89242465 233.2043457 191.06835938 C230.9818377 186.74758961 229.10141473 182.407972 227.38256836 177.86035156 C225.76568967 174.02262394 223.70386833 170.44214242 221.64819336 166.82519531 C220.37866211 164.47753906 220.37866211 164.47753906 219.37866211 161.47753906 C218.71866211 161.47753906 218.05866211 161.47753906 217.37866211 161.47753906 C214.37866211 155.72753906 214.37866211 155.72753906 214.37866211 153.47753906 C213.71866211 153.47753906 213.05866211 153.47753906 212.37866211 153.47753906 C211.33569336 152.07910156 211.33569336 152.07910156 210.19116211 150.10253906 C207.59752345 145.75392334 204.70776712 141.67498435 201.73413086 137.57910156 C200.37866211 135.47753906 200.37866211 135.47753906 200.37866211 133.47753906 C199.80116211 133.27128906 199.22366211 133.06503906 198.62866211 132.85253906 C195.53388575 130.96128684 194.18678581 128.5771797 192.37866211 125.47753906 C192.37866211 124.81753906 192.37866211 124.15753906 192.37866211 123.47753906 C191.71866211 123.47753906 191.05866211 123.47753906 190.37866211 123.47753906 C189.12573242 122.0065918 189.12573242 122.0065918 187.70678711 119.97363281 C184.47410518 115.52134816 180.90966713 111.53031582 177.12866211 107.54003906 C176.47115967 106.84273682 175.81365723 106.14543457 175.13623047 105.42700195 C170.11321546 100.14715266 164.91635495 95.21844156 159.37866211 90.47753906 C158.45827148 89.64996094 158.45827148 89.64996094 157.51928711 88.80566406 C153.06219054 84.8057056 148.41926427 81.04210466 143.75366211 77.29003906 C143.11984619 76.77852295 142.48603027 76.26700684 141.83300781 75.73999023 C138.93523394 73.42457312 136.05136503 71.22695994 132.91772461 69.23925781 C132.07983398 68.65789062 131.24194336 68.07652344 130.37866211 67.47753906 C130.37866211 66.81753906 130.37866211 66.15753906 130.37866211 65.47753906 C129.79745605 65.35894531 129.21625 65.24035156 128.61743164 65.11816406 C126.26566384 64.44520455 124.61351177 63.54250994 122.55834961 62.22753906 C121.85838867 61.78410156 121.15842773 61.34066406 120.43725586 60.88378906 C119.71666992 60.41972656 118.99608398 59.95566406 118.25366211 59.47753906 C116.81397555 58.56021665 115.37388985 57.64352029 113.93334961 56.72753906 C113.29896973 56.32019531 112.66458984 55.91285156 112.01098633 55.49316406 C110.34882185 54.42395275 110.34882185 54.42395275 108.37866211 53.47753906 C108.37866211 52.81753906 108.37866211 52.15753906 108.37866211 51.47753906 C107.22366211 51.14753906 106.06866211 50.81753906 104.87866211 50.47753906 C98.67587224 48.42630001 92.99411996 45.36496185 87.19116211 42.40332031 C83.61567407 40.58146572 79.99170077 38.92014323 76.30444336 37.33691406 C74.34264084 36.46146466 72.46432536 35.48267642 70.56616211 34.47753906 C66.36530462 32.33937807 61.99017003 30.92520394 57.50366211 29.50488281 C55.28184165 28.77445934 53.08496648 27.96617964 50.90991211 27.10644531 C44.71192453 24.76088336 38.27892915 23.16808301 31.87866211 21.47753906 C31.20881287 21.29978943 30.53896362 21.12203979 29.84881592 20.93890381 C3.40832642 13.94350889 -22.75688571 11.28982154 -50.04638672 11.29223633 C-52.78832679 11.29005538 -55.52985929 11.27182897 -58.27172852 11.25292969 C-74.16993958 11.20291185 -91.14691098 11.40351959 -106.62133789 15.47753906 C-106.95133789 15.80753906 -107.28133789 16.13753906 -107.62133789 16.47753906 C-110.55546369 17.07044531 -113.48995772 17.62489011 -116.43383789 18.16503906 C-123.8723427 19.58789912 -131.12386261 21.34065875 -138.37133789 23.54003906 C-139.17933838 23.78520264 -139.98733887 24.03036621 -140.81982422 24.28295898 C-145.82804829 25.83921034 -150.72527144 27.59887691 -155.62133789 29.47753906 C-156.79696289 29.91066406 -157.97258789 30.34378906 -159.18383789 30.79003906 C-171.48621352 35.34268391 -171.48621352 35.34268391 -183.37133789 40.85253906 C-186.62133789 42.47753906 -186.62133789 42.47753906 -189.62133789 42.47753906 C-189.62133789 43.13753906 -189.62133789 43.79753906 -189.62133789 44.47753906 C-190.3599707 44.84105469 -191.09860352 45.20457031 -191.85961914 45.57910156 C-201.51776789 50.36522356 -211.02025021 55.15308301 -219.84399414 61.37597656 C-221.62133789 62.47753906 -221.62133789 62.47753906 -223.62133789 62.47753906 C-223.62133789 63.13753906 -223.62133789 63.79753906 -223.62133789 64.47753906 C-226.59133789 65.46753906 -226.59133789 65.46753906 -229.62133789 66.47753906 C-229.62133789 67.13753906 -229.62133789 67.79753906 -229.62133789 68.47753906 C-231.58632111 69.86195906 -233.59182255 71.1895774 -235.62133789 72.47753906 C-236.36383789 73.05503906 -237.10633789 73.63253906 -237.87133789 74.22753906 C-239.62133789 75.47753906 -239.62133789 75.47753906 -241.62133789 75.47753906 C-241.62133789 76.13753906 -241.62133789 76.79753906 -241.62133789 77.47753906 C-243.33466543 79.06287609 -245.11822836 80.57295121 -246.93383789 82.04003906 C-247.9199707 82.84570312 -248.90610352 83.65136719 -249.92211914 84.48144531 C-252.62133789 86.47753906 -252.62133789 86.47753906 -255.62133789 87.47753906 C-255.62133789 88.13753906 -255.62133789 88.79753906 -255.62133789 89.47753906 C-256.91430664 90.74707031 -256.91430664 90.74707031 -258.80883789 92.29003906 C-261.66414721 94.68136062 -264.31489712 97.16107495 -266.87133789 99.86425781 C-267.43828369 100.45811279 -268.00522949 101.05196777 -268.58935547 101.66381836 C-269.72654239 102.86333016 -270.85169924 104.07437423 -271.96386719 105.29711914 C-273.57055664 106.97753906 -273.57055664 106.97753906 -276.62133789 109.47753906 C-281.26651295 109.4843702 -284.74983875 106.83080324 -288.62133789 104.47753906 C-287.46519298 100.79889617 -285.94568542 98.67254733 -283.20166016 96.01391602 C-281.33779777 94.20188358 -279.52182854 92.34683789 -277.70336914 90.48925781 C-276.28029322 89.04775168 -274.85711395 87.60634758 -273.43383789 86.16503906 C-272.348125 85.05418945 -272.348125 85.05418945 -271.24047852 83.92089844 C-270.54760742 83.22158203 -269.85473633 82.52226562 -269.14086914 81.80175781 C-268.512854 81.16326904 -267.88483887 80.52478027 -267.23779297 79.86694336 C-265.62133789 78.47753906 -265.62133789 78.47753906 -263.62133789 78.47753906 C-263.62133789 77.81753906 -263.62133789 77.15753906 -263.62133789 76.47753906 C-260.15979943 73.47753906 -260.15979943 73.47753906 -257.62133789 73.47753906 C-257.62133789 72.81753906 -257.62133789 72.15753906 -257.62133789 71.47753906 C-255.94165039 69.96972656 -255.94165039 69.96972656 -253.74633789 68.35253906 C-253.02704102 67.81371094 -252.30774414 67.27488281 -251.56665039 66.71972656 C-249.62133789 65.47753906 -249.62133789 65.47753906 -247.62133789 65.47753906 C-247.62133789 64.81753906 -247.62133789 64.15753906 -247.62133789 63.47753906 C-246.14013672 62.1965332 -246.14013672 62.1965332 -244.07836914 60.76269531 C-243.33393555 60.24126953 -242.58950195 59.71984375 -241.82250977 59.18261719 C-241.03424805 58.64056641 -240.24598633 58.09851563 -239.43383789 57.54003906 C-238.66491211 57.00185547 -237.89598633 56.46367188 -237.10375977 55.90917969 C-226.42822175 48.47753906 -226.42822175 48.47753906 -223.62133789 48.47753906 C-223.62133789 47.81753906 -223.62133789 47.15753906 -223.62133789 46.47753906 C-216.94305296 41.37680175 -206.21986344 33.47753906 -197.62133789 33.47753906 C-197.62133789 32.81753906 -197.62133789 32.15753906 -197.62133789 31.47753906 C-194.98133789 30.81753906 -192.34133789 30.15753906 -189.62133789 29.47753906 C-189.62133789 28.81753906 -189.62133789 28.15753906 -189.62133789 27.47753906 C-173.07242032 19.9543777 -156.08148996 13.53640113 -138.62133789 8.47753906 C-137.86997559 8.25614258 -137.11861328 8.03474609 -136.34448242 7.80664062 C-94.13040311 -4.49714196 -43.41926228 -9.15520093 0 0 Z " fill="#122895" transform="translate(391.621337890625,54.5224609375)"/>
<path d="M0 0 C-0.33 1.32 -0.66 2.64 -1 4 C-1.66 4 -2.32 4 -3 4 C-3.11214844 4.55171875 -3.22429687 5.1034375 -3.33984375 5.671875 C-4.11360773 8.40065211 -5.26817694 10.72772943 -6.5625 13.25 C-7.01753906 14.14203125 -7.47257813 15.0340625 -7.94140625 15.953125 C-8.46541016 16.96632813 -8.46541016 16.96632813 -9 18 C-9.66 18 -10.32 18 -11 18 C-11.11730469 18.57105469 -11.23460937 19.14210938 -11.35546875 19.73046875 C-12.05317028 22.18722384 -13.0428368 24.09943381 -14.3125 26.3125 C-14.97378906 27.488125 -14.97378906 27.488125 -15.6484375 28.6875 C-16.49897381 30.14275288 -17.37589579 31.58320802 -18.2890625 33 C-19.59675502 34.99115508 -19.59675502 34.99115508 -21 38 C-19.83650668 42.25156207 -16.27066472 44.34227348 -12.875 46.8125 C-11.68854485 47.69843641 -10.50364432 48.58645861 -9.3203125 49.4765625 C-8.74700195 49.90743164 -8.17369141 50.33830078 -7.58300781 50.78222656 C-4.91109103 52.83767396 -2.42115193 55.08088191 0.078125 57.33984375 C3.01939644 59.88057619 6.16399113 62.14558818 9.3125 64.421875 C9.869375 64.94265625 10.42625 65.4634375 11 66 C11 66.99 11 67.98 11 69 C10.34402832 69.08564209 9.68805664 69.17128418 9.01220703 69.25952148 C6.049303 69.64846501 3.08715747 70.04291273 0.125 70.4375 C-1.42380859 70.63956055 -1.42380859 70.63956055 -3.00390625 70.84570312 C-3.99003906 70.97783203 -4.97617187 71.10996094 -5.9921875 71.24609375 C-6.90339355 71.36654053 -7.81459961 71.4869873 -8.75341797 71.61108398 C-11.02733424 71.89362951 -11.02733424 71.89362951 -13 73 C-14.72026431 73.32444704 -16.44860265 73.60657202 -18.1796875 73.8671875 C-19.24485596 74.02928711 -20.31002441 74.19138672 -21.4074707 74.35839844 C-22.55175537 74.52887695 -23.69604004 74.69935547 -24.875 74.875 C-26.03926514 75.05063477 -27.20353027 75.22626953 -28.40307617 75.40722656 C-30.78691792 75.76657183 -33.17095246 76.12464046 -35.55517578 76.48144531 C-38.70359302 76.9553814 -41.85012447 77.43980679 -44.99609375 77.9296875 C-46.76822164 78.20317378 -48.5403566 78.47661426 -50.3125 78.75 C-51.52752197 78.94118408 -51.52752197 78.94118408 -52.76708984 79.13623047 C-61.26791703 80.43216585 -61.26791703 80.43216585 -64 80 C-65.66015625 78.20703125 -65.66015625 78.20703125 -67.0625 75.8125 C-68.72215891 73.08347323 -70.27597259 70.66435766 -72.3125 68.1875 C-73.96772457 66.04183852 -74.60716021 64.65166857 -75 62 C-75.66 62 -76.32 62 -77 62 C-77.495 60.02 -77.495 60.02 -78 58 C-78.66 58 -79.32 58 -80 58 C-81.46484375 55.31445312 -81.46484375 55.31445312 -82.9296875 52.62890625 C-83.91410024 50.83381685 -83.91410024 50.83381685 -86 50 C-86.65355469 48.89978516 -86.65355469 48.89978516 -87.3203125 47.77734375 C-89.20679205 44.65807175 -91.38914275 42.22591849 -93.875 39.5625 C-99.42694825 33.55930486 -99.42694825 33.55930486 -101.8125 30.625 C-104.90951374 26.90858351 -107.96835056 23.6877663 -112 21 C-111.505 19.515 -111.505 19.515 -111 18 C-100.94599919 16.1281691 -90.87234836 14.52109484 -80.75 13.0625 C-69.09214114 11.37263779 -57.55006463 9.30367477 -46 7 C-36.60023394 5.13556626 -27.23591397 3.58736345 -17.71875 2.47265625 C-13.48624716 1.93470158 -9.31990941 1.19998197 -5.13671875 0.3671875 C-3 0 -3 0 0 0 Z " fill="#0D2395" transform="translate(683,294)"/>
<path d="M0 0 C4.47422406 1.18435343 6.87498396 3.60989692 9.9609375 6.85546875 C12.55158519 12.20233184 9.1181756 19.00589633 7.3125 24.3125 C1.28808257 42.84108618 -2.72925189 61.46936672 -3.7980957 80.93896484 C-4 83 -4 83 -4.5015564 84.85798645 C-5.019378 87.08327508 -5.14680247 89.05095875 -5.17700195 91.33325195 C-5.18964081 92.18954193 -5.20227966 93.04583191 -5.21530151 93.92807007 C-5.22288483 94.85543976 -5.23046814 95.78280945 -5.23828125 96.73828125 C-5.24812042 97.71463531 -5.25795959 98.69098938 -5.26809692 99.69692993 C-5.74013465 152.35526327 -5.74013465 152.35526327 6.8581543 203.18652344 C10.18103766 212.26687798 9.57107049 222.08448127 9.6875 231.625 C9.7207226 233.5065335 9.75521671 235.388045 9.79101562 237.26953125 C9.87535375 241.84623188 9.94242826 246.42288762 10 251 C7.29738169 247.57173447 5.95676819 244.46787635 4.5625 240.3125 C2.89475472 235.4845527 1.1418684 230.79243324 -1.0078125 226.16015625 C-3.56996035 220.58193672 -5.52673312 215.43780035 -6.9375 209.4375 C-8.13192273 204.38576402 -9.46830736 199.43638836 -10.96484375 194.46484375 C-13.17937594 186.774882 -14.46731843 179.02503429 -15.625 171.125 C-15.8299473 169.7824325 -16.03567554 168.43998397 -16.2421875 167.09765625 C-16.75628124 163.72934308 -17.24206387 160.35768187 -17.71612549 156.98352051 C-17.99053319 155.06614758 -18.28471416 153.15163665 -18.57958984 151.23730469 C-20.26032317 139.50376976 -20.39698154 127.83979438 -20.375 116 C-20.37468277 114.42061646 -20.37468277 114.42061646 -20.37435913 112.80932617 C-20.3379403 94.56746344 -19.15746497 76.98743193 -16 59 C-15.81808105 57.93571777 -15.63616211 56.87143555 -15.44873047 55.77490234 C-12.11785568 36.83445886 -7.00281667 17.92025136 0 0 Z " fill="#0F2493" transform="translate(38,261)"/>
<path d="M0 0 C3 1.3125 3 1.3125 5 3 C5.556875 3.45375 6.11375 3.9075 6.6875 4.375 C9.04452555 7.29322211 9.86600672 10.1386146 10.4375 13.8125 C9.81993295 18.3119171 7.925942 21.55213321 5 25 C2.1875 26.5 2.1875 26.5 0 27 C0 27.66 0 28.32 0 29 C-10.17241379 29.34482759 -10.17241379 29.34482759 -14.6015625 25.671875 C-18.25778299 22.24091928 -19.86433855 19.97369899 -20.09765625 14.859375 C-20.04882812 11.9296875 -20.04882812 11.9296875 -20 9 C-19.34 9 -18.68 9 -18 9 C-17.9175 8.4225 -17.835 7.845 -17.75 7.25 C-16.78423392 4.35270175 -15.27278104 2.99729243 -13 1 C-9.08000551 -0.95999724 -4.2836767 -0.35335683 0 0 Z " fill="#0D2393" transform="translate(432,447)"/>
<path d="M0 0 C1.4540625 0.99 1.4540625 0.99 2.9375 2 C2.9375 2.99 2.9375 3.98 2.9375 5 C3.5975 5 4.2575 5 4.9375 5 C6.69579221 14.49860032 6.69579221 14.49860032 4.25 19 C2.17169883 21.69617449 1.12055321 22.97687575 -2.0625 24 C-2.0625 24.66 -2.0625 25.32 -2.0625 26 C-5.53129476 27.73439738 -9.26982233 27.47248846 -13.0625 27 C-17.70675866 24.50586109 -21.37625022 22.05874933 -23.0625 17 C-23.68037374 9.98950949 -23.15150375 5.76052631 -18.625 0.25 C-13.64463917 -3.73428866 -5.22127619 -3.00329504 0 0 Z " fill="#102696" transform="translate(314.0625,449)"/>
<path d="M0 0 C5.17243334 1.809469 8.2312952 4.2522562 11 9 C11.1183065 11.95766242 10.87849557 13.26635738 10 16 C9.67644531 17.09957031 9.35289063 18.19914062 9.01953125 19.33203125 C8.04861461 22.56725167 7.03907123 25.78612851 6 29 C5.67 27.68 5.34 26.36 5 25 C4.34 25 3.68 25 3 25 C2.814375 24.071875 2.814375 24.071875 2.625 23.125 C2.12802644 20.80879168 2.12802644 20.80879168 0 19 C-2.08379509 22.84700632 -3.49686624 26.90054429 -5 31 C-5.99 31 -6.98 31 -8 31 C-9.70848191 26.90173972 -8.15188568 23.41407863 -6.8125 19.4375 C-6.58344971 18.73238281 -6.35439941 18.02726562 -6.1184082 17.30078125 C-4.21219403 11.48633246 -2.16975919 5.7213762 0 0 Z " fill="#122792" transform="translate(38,261)"/>
<path d="M0 0 C2.4375 0.9375 2.4375 0.9375 5 3 C5.7524935 5.98877701 5.92909865 8.92545953 6 12 C6.66 12 7.32 12 8 12 C8.66 13.98 9.32 15.96 10 18 C8.3125 20.0625 8.3125 20.0625 6 22 C2.26997085 22.09564177 1.0552544 21.04897549 -1.75 18.5625 C-5.05299385 14.800757 -5.0867826 12.96429334 -4.9375 7.97265625 C-4.91266984 5.7852789 -4.91266984 5.7852789 -6 3 C-4.68 3.33 -3.36 3.66 -2 4 C-1.34 2.68 -0.68 1.36 0 0 Z " fill="#0C2393" transform="translate(617,205)"/>
<path d="M0 0 C0 0.66 0 1.32 0 2 C1.32 2.33 2.64 2.66 4 3 C3.34 4.98 2.68 6.96 2 9 C0.68 9 -0.64 9 -2 9 C-2.33 9.99 -2.66 10.98 -3 12 C-5.85488756 13.82891234 -8.69118291 14.46227251 -12 15.0625 C-15.03065 15.62150709 -18.01793447 16.21996897 -21 17 C-20.4225 16.29875 -19.845 15.5975 -19.25 14.875 C-16.99507048 11.99370117 -14.99497904 9.06371781 -13 6 C-13.33 6 -13.66 6 -14 6 C-14.99 5.67 -15.98 5.34 -17 5 C-11.40695064 0.66538674 -7.10940067 0 0 0 Z " fill="#0C2394" transform="translate(245,68)"/>
<path d="M0 0 C0.33 0 0.66 0 1 0 C1.02712153 1.916588 1.04645097 3.8332873 1.0625 5.75 C1.07410156 6.81734375 1.08570313 7.8846875 1.09765625 8.984375 C1 12 1 12 0.50297546 13.89781189 C-0.05158302 16.21559144 -0.13397345 18.26839859 -0.14526367 20.65063477 C-0.15164352 21.57002335 -0.15802338 22.48941193 -0.16459656 23.43666077 C-0.16570938 24.42822678 -0.1668222 25.41979279 -0.16796875 26.44140625 C-0.17129715 27.47829086 -0.17462555 28.51517548 -0.17805481 29.58348083 C-0.18312079 31.7866878 -0.18546324 33.98990245 -0.18530273 36.19311523 C-0.18745795 39.49802141 -0.20552914 42.80257617 -0.22460938 46.10742188 C-0.25414585 57.59862591 0.13139958 68.84412904 1.5690918 80.24975586 C1.910753 83.22327302 2.09280918 86.01579965 2 89 C-1.71388268 85.28611732 -1.11951874 79.1704399 -1.625 74.125 C-1.75616211 72.82667236 -1.88732422 71.52834473 -2.02246094 70.19067383 C-4.06363093 48.83483538 -3.11632277 27.38826931 -2 6 C-1.67 6 -1.34 6 -1 6 C-0.67 4.02 -0.34 2.04 0 0 Z " fill="#4254A2" transform="translate(33,332)"/>
<path d="M0 0 C0.66 0.33 1.32 0.66 2 1 C1.67 1.99 1.34 2.98 1 4 C1.66 4 2.32 4 3 4 C3 4.66 3 5.32 3 6 C1.02 6.66 -0.96 7.32 -3 8 C-2.67 9.32 -2.34 10.64 -2 12 C-1.01 11.34 -0.02 10.68 1 10 C1.99 10 2.98 10 4 10 C4 9.34 4 8.68 4 8 C7.97041037 7.77942165 9.23312136 8.11656068 13 10 C9.37 11.65 5.74 13.3 2 15 C2 14.34 2 13.68 2 13 C0.35 13.66 -1.3 14.32 -3 15 C-4.5 13.625 -4.5 13.625 -6 12 C-6 11.34 -6 10.68 -6 10 C-9.2192268 8.9269244 -9.90206442 9.20053275 -13 10 C-13.66 9.67 -14.32 9.34 -15 9 C-10.33640866 5.5023065 -5.54616854 1.96347116 0 0 Z M-12 10 C-11.34 10.66 -10.68 11.32 -10 12 C-11.65 12.33 -13.3 12.66 -15 13 C-14.01 12.01 -13.02 11.02 -12 10 Z " fill="#0D239D" transform="translate(187,90)"/>
<path d="M0 0 C4.04420651 1.77945087 7.46078487 4.39529673 11 7 C10.01 7.33 9.02 7.66 8 8 C6.79117904 10.00016466 6.79117904 10.00016466 6 12 C6.66 12.66 7.32 13.32 8 14 C7.34 14 6.68 14 6 14 C6 14.763125 6 15.52625 6 16.3125 C6 18.20833333 6 20.10416667 6 22 C5.50371094 21.55269531 5.00742187 21.10539062 4.49609375 20.64453125 C0.16580698 16.79082253 -4.22336288 13.28393802 -9 10 C-6.3333581 8.66667905 -4.83319697 9.32897967 -2 10 C-2 9.34 -2 8.68 -2 8 C-0.68 7.67 0.64 7.34 2 7 C2.66 8.32 3.32 9.64 4 11 C4.66 9.68 5.32 8.36 6 7 C5.34 7 4.68 7 4 7 C3.67 7.66 3.34 8.32 3 9 C2.87625 8.443125 2.7525 7.88625 2.625 7.3125 C1.94023145 4.77885636 1.00866237 2.42078968 0 0 Z " fill="#1B2E95" transform="translate(534,114)"/>
<path d="M0 0 C0.33 0 0.66 0 1 0 C2.13389543 12.44095544 1.7924561 24.54688148 1.0625 37 C0.96073763 38.85412016 0.85982131 40.70828696 0.75976562 42.5625 C0.51622583 47.04226229 0.26136741 51.52124396 0 56 C-0.33 56 -0.66 56 -1 56 C-1.02545424 49.31055518 -1.04291058 42.62112297 -1.05493164 35.93164062 C-1.05994564 33.65819838 -1.06675848 31.38475933 -1.07543945 29.11132812 C-1.08763383 25.83462736 -1.09325778 22.5579694 -1.09765625 19.28125 C-1.10281754 18.27259888 -1.10797882 17.26394775 -1.11329651 16.22473145 C-1.11372955 10.71853538 -0.81646966 5.44689793 0 0 Z " fill="#31449E" transform="translate(19,344)"/>
<path d="M0 0 C0.144375 0.639375 0.28875 1.27875 0.4375 1.9375 C0.81007181 3.97545146 0.81007181 3.97545146 2 5 C2.44628137 9.57438406 1.48847248 12.81360325 -0.19921875 16.96484375 C-1.36273793 19.92188518 -2.16975557 22.93448209 -3 26 C-3.99 26 -4.98 26 -6 26 C-7.78243584 21.83018039 -6.05662953 18.16931217 -4.6875 14.125 C-4.3481543 13.08279297 -4.3481543 13.08279297 -4.00195312 12.01953125 C-3.34514194 10.00934833 -2.67467253 8.00424884 -2 6 C-1.61457031 4.84242188 -1.22914062 3.68484375 -0.83203125 2.4921875 C-0.55746094 1.66976563 -0.28289063 0.84734375 0 0 Z " fill="#3748A5" transform="translate(36,266)"/>
<path d="M0 0 C0.433125 0.639375 0.86625 1.27875 1.3125 1.9375 C2.91239177 4.26746003 2.91239177 4.26746003 6 5 C6.33 7.97 6.66 10.94 7 14 C6.34 13.01 5.68 12.02 5 11 C4.34 12.65 3.68 14.3 3 16 C0 14 0 14 -1 11 C-1.99 11.495 -1.99 11.495 -3 12 C-3 11.01 -3 10.02 -3 9 C-2.34 9 -1.68 9 -1 9 C-1.5878125 8.1646875 -1.5878125 8.1646875 -2.1875 7.3125 C-2.455625 6.549375 -2.72375 5.78625 -3 5 C-1.625 2.25 -1.625 2.25 0 0 Z " fill="#0A2195" transform="translate(38,466)"/>
<path d="M0 0 C0.33 0 0.66 0 1 0 C1.02712153 1.916588 1.04645097 3.8332873 1.0625 5.75 C1.07410156 6.81734375 1.08570313 7.8846875 1.09765625 8.984375 C1 12 1 12 0.50672913 13.95355225 C-0.33085012 17.33615271 -0.24082043 20.79755879 -0.31640625 24.265625 C-0.33718735 25.05902283 -0.35796844 25.85242065 -0.37937927 26.66986084 C-0.44459973 29.19648844 -0.50363144 31.72321721 -0.5625 34.25 C-0.6057114 35.96615616 -0.64932653 37.68230222 -0.69335938 39.3984375 C-0.80025283 43.59885546 -0.90159729 47.79937489 -1 52 C-1.33 52 -1.66 52 -2 52 C-2 36.82 -2 21.64 -2 6 C-1.67 6 -1.34 6 -1 6 C-0.67 4.02 -0.34 2.04 0 0 Z " fill="#4A5CA9" transform="translate(33,332)"/>
<path d="M0 0 C7.10235633 0.50376067 13.74841466 1.74402521 20.625 3.5625 C21.53378906 3.79646484 22.44257813 4.03042969 23.37890625 4.27148438 C25.58772417 4.84112689 27.79458552 5.41734683 30 6 C30 6.33 30 6.66 30 7 C25.27951552 7.10043584 20.7752179 6.7913085 16.08984375 6.22265625 C13.71596499 5.96973833 11.38546434 5.92304954 9 6 C9 5.34 9 4.68 9 4 C8.34 4 7.68 4 7 4 C7 3.34 7 2.68 7 2 C4.69 2 2.38 2 0 2 C0 1.34 0 0.68 0 0 Z " fill="#26368D" transform="translate(398,56)"/>
<path d="M0 0 C1.4540625 0.99 1.4540625 0.99 2.9375 2 C2.9375 2.99 2.9375 3.98 2.9375 5 C3.5975 5 4.2575 5 4.9375 5 C4.6075 5.66 4.2775 6.32 3.9375 7 C3.2775 7 2.6175 7 1.9375 7 C1.834375 6.360625 1.73125 5.72125 1.625 5.0625 C1.398125 4.381875 1.17125 3.70125 0.9375 3 C-0.0525 2.67 -1.0425 2.34 -2.0625 2 C-2.0625 1.34 -2.0625 0.68 -2.0625 0 C-10.20513572 -0.07935027 -10.20513572 -0.07935027 -17.125 3.5625 C-18.0840625 4.7690625 -18.0840625 4.7690625 -19.0625 6 C-20.0525 6 -21.0425 6 -22.0625 6 C-20.77361971 3.1248055 -19.52983017 0.9928436 -17.0625 -1 C-11.24187052 -2.78714423 -5.3694413 -3.0885201 0 0 Z " fill="#24358B" transform="translate(314.0625,449)"/>
<path d="M0 0 C0.66 0.33 1.32 0.66 2 1 C1.67 1.99 1.34 2.98 1 4 C1.66 4 2.32 4 3 4 C3 4.66 3 5.32 3 6 C2.3709375 6.12117188 1.741875 6.24234375 1.09375 6.3671875 C-4.31832326 7.42678016 -9.66171034 8.61599898 -15 10 C-12.0761589 6.81980317 -9.16598831 4.74648691 -5.375 2.6875 C-4.41335937 2.15511719 -3.45171875 1.62273437 -2.4609375 1.07421875 C-1.64882812 0.71972656 -0.83671875 0.36523438 0 0 Z " fill="#283B9E" transform="translate(187,90)"/>
<path d="M0 0 C1.10844919 3.32534757 0.84454356 5.62182575 0 9 C0.33 9 0.66 9 1 9 C1.33 15.27 1.66 21.54 2 28 C1.34 28.33 0.68 28.66 0 29 C-2.4638083 24.22881567 -2.29809439 19.73427243 -2.25 14.5 C-2.25773437 13.65824219 -2.26546875 12.81648437 -2.2734375 11.94921875 C-2.25950358 7.52519923 -2.07621727 4.02061122 0 0 Z " fill="#32439D" transform="translate(38,197)"/>
<path d="M0 0 C2.5 1.3125 2.5 1.3125 5 3 C5 3.99 5 4.98 5 6 C-3.91 6.99 -3.91 6.99 -13 8 C-9.84372495 5.63279371 -8.31527484 4.58756679 -4.8125 3.4375 C-2.75047087 2.79714142 -2.75047087 2.79714142 -1 2 C-0.67 1.34 -0.34 0.68 0 0 Z " fill="#263893" transform="translate(689,357)"/>
<path d="M0 0 C-1.89740855 3.7948171 -6.97509723 4.3378082 -10.8125 5.625 C-12.2078492 6.08480512 -13.603522 6.54363464 -15 7 C-15 6.34 -15 5.68 -15 5 C-17.31 5.33 -19.62 5.66 -22 6 C-18.9278703 2.9278703 -15.12273447 2.43253081 -11 1.3125 C-10.16726562 1.07466797 -9.33453125 0.83683594 -8.4765625 0.59179688 C-7.67992187 0.37201172 -6.88328125 0.15222656 -6.0625 -0.07421875 C-5.33160156 -0.27619873 -4.60070312 -0.47817871 -3.84765625 -0.6862793 C-2 -1 -2 -1 0 0 Z " fill="#213292" transform="translate(260,63)"/>
<path d="M0 0 C0.33 0.66 0.66 1.32 1 2 C1.66 2 2.32 2 3 2 C5.60018816 5.90028225 5.15085514 9.47434569 5 14 C4.01 14.33 3.02 14.66 2 15 C-0.59227518 10.13948404 -0.18689553 5.34728867 0 0 Z " fill="#092098" transform="translate(41,486)"/>
<path d="M0 0 C0.66 0.33 1.32 0.66 2 1 C-13.14893617 16.34042553 -13.14893617 16.34042553 -20 22 C-20.66 21.67 -21.32 21.34 -22 21 C-19.71643754 18.65861457 -17.42186626 16.32833018 -15.125 14 C-14.47402344 13.33226562 -13.82304687 12.66453125 -13.15234375 11.9765625 C-12.52714844 11.34492188 -11.90195313 10.71328125 -11.2578125 10.0625 C-10.6817627 9.47597656 -10.10571289 8.88945312 -9.51220703 8.28515625 C-8 7 -8 7 -6 7 C-6 6.34 -6 5.68 -6 5 C-4.04072937 3.2856382 -2.04119788 1.61594832 0 0 Z " fill="#CED7F1" transform="translate(142,137)"/>
<path d="M0 0 C2.97 0.495 2.97 0.495 6 1 C6 1.66 6 2.32 6 3 C6.66 3.33 7.32 3.66 8 4 C8.66 4.33 9.32 4.66 10 5 C9.625 6.9375 9.625 6.9375 9 9 C8.01 9.495 8.01 9.495 7 10 C7 9.34 7 8.68 7 8 C4.88214887 6.88214887 4.88214887 6.88214887 2 6 C1.67 6.66 1.34 7.32 1 8 C0.34 7.67 -0.32 7.34 -1 7 C-1.625 4.4375 -1.625 4.4375 -2 2 C-1.01 2 -0.02 2 1 2 C0.67 1.34 0.34 0.68 0 0 Z " fill="#081E95" transform="translate(530,116)"/>
<path d="M0 0 C-3.64051343 2.00089288 -7.5003066 3.22993761 -11.4375 4.5 C-16.68343411 6.19860799 -16.68343411 6.19860799 -21.828125 8.1796875 C-24.34544436 9.13047359 -25.51417806 8.92067479 -28 8 C-28 7.67 -28 7.34 -28 7 C-26.1128125 6.5978125 -26.1128125 6.5978125 -24.1875 6.1875 C-20.97159211 5.44169036 -20.97159211 5.44169036 -18.4375 3.4375 C-16.07639916 1.07639916 -13.22225122 1.33333633 -10 1 C-9.13375 0.814375 -8.2675 0.62875 -7.375 0.4375 C-4.86804081 -0.02430827 -2.54338772 -0.07266822 0 0 Z " fill="#2A3A92" transform="translate(260,75)"/>
<path d="M0 0 C2 1 2 1 2.9296875 3.22265625 C3.24164062 4.15980469 3.55359375 5.09695312 3.875 6.0625 C5.11550342 9.64462784 6.42316857 13.01956241 8.1875 16.375 C9.68554676 19.23010088 10.59559676 21.76477409 11 25 C9 24 9 24 8 21 C7.34 20.67 6.68 20.34 6 20 C5.64984951 18.33678518 5.31802943 16.66965451 5 15 C4.34 14.01 3.68 13.02 3 12 C2.40957516 10.32893521 1.8711487 8.63893924 1.375 6.9375 C0.98441406 5.62072266 0.98441406 5.62072266 0.5859375 4.27734375 C0 2 0 2 0 0 Z " fill="#3D4E9E" transform="translate(637,239)"/>
<path d="M0 0 C0.66 0.33 1.32 0.66 2 1 C2 1.99 2 2.98 2 4 C2.66 4 3.32 4 4 4 C3.38722388 6.96175123 2.74627478 8.38058783 1 11 C0.67 10.01 0.34 9.02 0 8 C-0.66 7.690625 -1.32 7.38125 -2 7.0625 C-4 6 -4 6 -4.75 3.875 C-4.8325 3.25625 -4.915 2.6375 -5 2 C-2.525 2.495 -2.525 2.495 0 3 C0 2.01 0 1.02 0 0 Z " fill="#0A208F" transform="translate(593,179)"/>
<path d="M0 0 C1.65 0.33 3.3 0.66 5 1 C6.125 5.75 6.125 5.75 5 8 C4.67 8.33 4.34 8.66 4 9 C2.0625 8.3125 2.0625 8.3125 0 7 C-0.93580311 4.12060581 -1.37245106 2.74490212 0 0 Z " fill="#0A1F96" transform="translate(506,99)"/>
<path d="M0 0 C-0.33 1.32 -0.66 2.64 -1 4 C-1.66 4 -2.32 4 -3 4 C-3.103125 4.5775 -3.20625 5.155 -3.3125 5.75 C-4.09792798 8.32049158 -5.30504197 9.93657284 -7 12 C-6.95875 10.88625 -6.9175 9.7725 -6.875 8.625 C-6.58878141 4.95633975 -6.58878141 4.95633975 -9 3 C-9 2.34 -9 1.68 -9 1 C-5.94152152 0.45627049 -3.11227195 0 0 0 Z " fill="#25368E" transform="translate(683,294)"/>
<path d="M0 0 C1.51953125 1.20703125 1.51953125 1.20703125 3 3 C3.07421875 5.26171875 3.07421875 5.26171875 2.6875 7.6875 C2.50767578 8.89986328 2.50767578 8.89986328 2.32421875 10.13671875 C2.21722656 10.75160156 2.11023438 11.36648438 2 12 C1.67 11.34 1.34 10.68 1 10 C0.34 10 -0.32 10 -1 10 C-1 11.98 -1 13.96 -1 16 C-1.66 16 -2.32 16 -3 16 C-2.40984815 10.49191603 -1.43336231 5.35121931 0 0 Z " fill="#3749A0" transform="translate(28,292)"/>
<path d="M0 0 C0.33 0 0.66 0 1 0 C1.33 5.28 1.66 10.56 2 16 C1.34 16 0.68 16 0 16 C0 18.64 0 21.28 0 24 C-0.33 24 -0.66 24 -1 24 C-1.18451025 7.1070615 -1.18451025 7.1070615 0 0 Z " fill="#3B4D9E" transform="translate(19,344)"/>
<path d="M0 0 C0.33 0.99 0.66 1.98 1 3 C1.66 3 2.32 3 3 3 C3.53341184 4.57914015 4.05125763 6.16354387 4.5625 7.75 C4.85253906 8.63171875 5.14257812 9.5134375 5.44140625 10.421875 C6.01697435 13.07834316 5.89248371 14.47031106 5 17 C4.34 16.67 3.68 16.34 3 16 C1.41669195 10.69126126 0.58929585 5.50009456 0 0 Z " fill="#2B3D93" transform="translate(41,459)"/>
<path d="M0 0 C-1.98 0.66 -3.96 1.32 -6 2 C-6 2.66 -6 3.32 -6 4 C-7.32 4.33 -8.64 4.66 -10 5 C-10.33 4.34 -10.66 3.68 -11 3 C-14.63 3.33 -18.26 3.66 -22 4 C-18.5989125 1.73260834 -15.49364674 1.07762252 -11.5625 0.3125 C-10.89412109 0.17005859 -10.22574219 0.02761719 -9.53710938 -0.11914062 C-6.08640357 -0.80654585 -3.34010306 -1.272827 0 0 Z " fill="#4B58A7" transform="translate(286,57)"/>
<path d="M0 0 C0 0.66 0 1.32 0 2 C0.66 2 1.32 2 2 2 C2 3.65 2 5.3 2 7 C-1.3 7 -4.6 7 -8 7 C-6.68 6.34 -5.36 5.68 -4 5 C-4.33 4.01 -4.66 3.02 -5 2 C-2 0 -2 0 0 0 Z " fill="#0C218E" transform="translate(649,272)"/>
<path d="M0 0 C0.66 0 1.32 0 2 0 C1.67 1.32 1.34 2.64 1 4 C0.34 4 -0.32 4 -1 4 C-1 8.95 -1 13.9 -1 19 C-3 18 -3 18 -3.625 16.4375 C-4.16368951 12.93601819 -4.05903219 9.54193167 -4 6 C-3.34 6 -2.68 6 -2 6 C-1.7834375 5.071875 -1.7834375 5.071875 -1.5625 4.125 C-1 2 -1 2 0 0 Z " fill="#4854A0" transform="translate(416,450)"/>
<path d="M0 0 C2.31 0.33 4.62 0.66 7 1 C7 1.99 7 2.98 7 4 C10.3 4.66 13.6 5.32 17 6 C17 6.33 17 6.66 17 7 C7.95423341 7.30663616 7.95423341 7.30663616 4 5 C1.6875 2.375 1.6875 2.375 0 0 Z " fill="#3F50A0" transform="translate(415,469)"/>
<path d="M0 0 C0.66 0.66 1.32 1.32 2 2 C1.34 2.66 0.68 3.32 0 4 C0 4.99 0 5.98 0 7 C1.65 6.34 3.3 5.68 5 5 C4.34 6.32 3.68 7.64 3 9 C2.34 9 1.68 9 1 9 C1 9.66 1 10.32 1 11 C0.01 11.33 -0.98 11.66 -2 12 C-1.67 10.68 -1.34 9.36 -1 8 C-1.66 7.67 -2.32 7.34 -3 7 C-1.125 1.125 -1.125 1.125 0 0 Z " fill="#12268C" transform="translate(147,296)"/>
<path d="M0 0 C6.67353409 0.28398017 10.71077185 3.07805532 16 7 C12.30581799 8.231394 9.7943739 7.64432764 6 7 C6 5.35 6 3.7 6 2 C3.03 1.505 3.03 1.505 0 1 C0 0.67 0 0.34 0 0 Z " fill="#20328F" transform="translate(85,173)"/>
<path d="M0 0 C1.32 0.33 2.64 0.66 4 1 C4 1.66 4 2.32 4 3 C4.928125 3.12375 4.928125 3.12375 5.875 3.25 C8 4 8 4 9 5.875 C9.33 6.57625 9.66 7.2775 10 8 C12.03317007 9.73425773 12.03317007 9.73425773 14 11 C13.67 11.99 13.34 12.98 13 14 C11.33333333 12.33333333 9.66666667 10.66666667 8 9 C7.071875 8.113125 6.14375 7.22625 5.1875 6.3125 C3 4 3 4 3 2 C2.01 1.67 1.02 1.34 0 1 C0 0.67 0 0.34 0 0 Z " fill="#3A499A" transform="translate(61,254)"/>
<path d="M0 0 C0.33 0 0.66 0 1 0 C1.33 5.28 1.66 10.56 2 16 C-1.50281042 11.32958611 -1.5344992 9.58600962 -2 4 C-1.34 4 -0.68 4 0 4 C0 2.68 0 1.36 0 0 Z " fill="#32408C" transform="translate(46,496)"/>
<path d="M0 0 C0.33 0 0.66 0 1 0 C2.3792223 6.30338787 3.41117949 11.6496923 2 18 C1.67 18 1.34 18 1 18 C0.6392073 15.18820232 0.2860722 12.37581501 -0.0625 9.5625 C-0.2181543 8.35883789 -0.2181543 8.35883789 -0.37695312 7.13085938 C-0.62644343 5.09192132 -0.81780318 3.04604939 -1 1 C-0.67 0.67 -0.34 0.34 0 0 Z " fill="#20308B" transform="translate(21,411)"/>
<path d="M0 0 C4.00972202 3.67557852 6.45335415 7.18966896 9 12 C6 12 6 12 3 10 C2.05078125 7.6171875 2.05078125 7.6171875 1.3125 4.875 C1.06113281 3.96492187 0.80976562 3.05484375 0.55078125 2.1171875 C0.27814453 1.06917969 0.27814453 1.06917969 0 0 Z " fill="#35439A" transform="translate(608,189)"/>
<path d="M0 0 C0 1.32 0 2.64 0 4 C-1.65 4.66 -3.3 5.32 -5 6 C-5 5.34 -5 4.68 -5 4 C-6.65 5.32 -8.3 6.64 -10 8 C-10.66 7.67 -11.32 7.34 -12 7 C-3.89473684 0 -3.89473684 0 0 0 Z " fill="#2E4197" transform="translate(61,175)"/>
<path d="M0 0 C1.11772247 3.35316742 0.85096806 5.59612776 0 9 C-0.185625 9.763125 -0.37125 10.52625 -0.5625 11.3125 C-0.706875 11.869375 -0.85125 12.42625 -1 13 C-1.66 13 -2.32 13 -3 13 C-3.08121924 11.39667209 -3.13929134 9.79215974 -3.1875 8.1875 C-3.22230469 7.29417969 -3.25710938 6.40085937 -3.29296875 5.48046875 C-2.95081002 2.58352485 -2.24606427 1.77444972 0 0 Z " fill="#192786" transform="translate(294,453)"/>
<path d="M0 0 C0.33 0.66 0.66 1.32 1 2 C-2.83724172 2.90413673 -6.37502274 3.10576898 -10.3125 3.0625 C-11.38113281 3.05347656 -12.44976563 3.04445313 -13.55078125 3.03515625 C-14.35902344 3.02355469 -15.16726563 3.01195312 -16 3 C-10.60634314 0.2066535 -6.07347984 -0.11908784 0 0 Z " fill="#4652A0" transform="translate(660,298)"/>
<path d="M0 0 C0.66 0.33 1.32 0.66 2 1 C1.07038578 2.15224028 0.1309875 3.29659176 -0.8125 4.4375 C-1.59560547 5.39462891 -1.59560547 5.39462891 -2.39453125 6.37109375 C-4 8 -4 8 -7 9 C-7.66 9.66 -8.32 10.32 -9 11 C-9.66 10.67 -10.32 10.34 -11 10 C-11 9.34 -11 8.68 -11 8 C-9.02866014 6.62464661 -7.02318078 5.29788956 -5 4 C-3.31916921 2.68456721 -1.6475884 1.35683751 0 0 Z " fill="#343537" transform="translate(177,291)"/>
<path d="M0 0 C4.75 1.875 4.75 1.875 7 3 C7 5.97 7 8.94 7 12 C3.95950199 8.35140239 2.03481238 4.2555467 0 0 Z " fill="#182A8E" transform="translate(615,224)"/>
<path d="M0 0 C1.93922422 0.45098238 3.87633594 0.91105559 5.8125 1.375 C6.89144531 1.63023438 7.97039062 1.88546875 9.08203125 2.1484375 C12 3 12 3 15 5 C12.69 5 10.38 5 8 5 C8 4.34 8 3.68 8 3 C7.34 3.66 6.68 4.32 6 5 C4 4.875 4 4.875 2 4 C0.875 1.9453125 0.875 1.9453125 0 0 Z " fill="#35459C" transform="translate(430,63)"/>
<path d="M0 0 C0.66 0.99 1.32 1.98 2 3 C0.02 5.97 0.02 5.97 -2 9 C-3.65 8.67 -5.3 8.34 -7 8 C-6.02133662 6.85373678 -5.04205413 5.70800212 -4.0625 4.5625 C-3.51722656 3.92441406 -2.97195312 3.28632813 -2.41015625 2.62890625 C-1.63204305 1.73008851 -0.84063472 0.84063472 0 0 Z " fill="#233394" transform="translate(121,138)"/>
<path d="M0 0 C3.3 0.33 6.6 0.66 10 1 C10 1.99 10 2.98 10 4 C11.32 4.33 12.64 4.66 14 5 C14 5.33 14 5.66 14 6 C12.35 6 10.7 6 9 6 C9 5.34 9 4.68 9 4 C8.34 4 7.68 4 7 4 C7 3.34 7 2.68 7 2 C4.69 2 2.38 2 0 2 C0 1.34 0 0.68 0 0 Z " fill="#283B99" transform="translate(398,56)"/>
<path d="M0 0 C2.70438996 0.36405249 3.74406383 0.68142682 5.484375 2.84765625 C5.90203125 3.57855469 6.3196875 4.30945313 6.75 5.0625 C7.39195312 6.16271484 7.39195312 6.16271484 8.046875 7.28515625 C8.36140625 7.85105469 8.6759375 8.41695312 9 9 C4.18579475 8.16677217 2.81953925 5.8377062 0 2 C0 1.34 0 0.68 0 0 Z " fill="#314094" transform="translate(592,170)"/>
<path d="M0 0 C0.99 0.33 1.98 0.66 3 1 C3 1.66 3 2.32 3 3 C4.32 3.33 5.64 3.66 7 4 C7 4.66 7 5.32 7 6 C7.66 6 8.32 6 9 6 C8.67 6.99 8.34 7.98 8 9 C5.03 7.35 2.06 5.7 -1 4 C-0.67 2.68 -0.34 1.36 0 0 Z " fill="#354498" transform="translate(104,155)"/>
<path d="M0 0 C4.49602235 0.33932244 7.73831047 0.73831047 11 4 C11 4.66 11 5.32 11 6 C6 4 6 4 1 2 C0.34 3.32 -0.32 4.64 -1 6 C-1.042721 4.33388095 -1.04063832 2.66617115 -1 1 C-0.67 0.67 -0.34 0.34 0 0 Z " fill="#10248A" transform="translate(505,97)"/>
<path d="M0 0 C0.99 0.33 1.98 0.66 3 1 C1.71034824 2.37562854 0.37310707 3.70766393 -1 5 C-1.66 5 -2.32 5 -3 5 C-3.66 6.32 -4.32 7.64 -5 9 C-5.99 9 -6.98 9 -8 9 C-7.67 8.34 -7.34 7.68 -7 7 C-6.34 7 -5.68 7 -5 7 C-4.9175 6.401875 -4.835 5.80375 -4.75 5.1875 C-3.77590452 2.34638817 -2.59505753 1.45017921 0 0 Z " fill="#2E3C8E" transform="translate(137,313)"/>
<path d="M0 0 C0.66 0.33 1.32 0.66 2 1 C-6.07744875 9.81548975 -6.07744875 9.81548975 -12 11 C-11.34 10.01 -10.68 9.02 -10 8 C-9.34 8 -8.68 8 -8 8 C-8 7.34 -8 6.68 -8 6 C-6.02678947 4.6273318 -4.02456848 3.29572383 -2 2 C-1.34 1.34 -0.68 0.68 0 0 Z " fill="#BFC8E9" transform="translate(158,124)"/>
<path d="M0 0 C3.65316671 1.24976756 4.78065836 1.67098753 7 5 C5.02 5.99 5.02 5.99 3 7 C2.67 6.34 2.34 5.68 2 5 C1.01 5 0.02 5 -1 5 C-0.67 3.35 -0.34 1.7 0 0 Z " fill="#39499D" transform="translate(38,261)"/>
<path d="M0 0 C0.99 0.495 0.99 0.495 2 1 C2.625 4.0625 2.625 4.0625 3 7 C3.66 6.67 4.32 6.34 5 6 C5.625 8.8125 5.625 8.8125 6 12 C5.01 13.485 5.01 13.485 4 15 C1.54510684 9.87674471 0.49658297 5.66104589 0 0 Z " fill="#4756A5" transform="translate(32,470)"/>
<path d="M0 0 C1.98 0.495 1.98 0.495 4 1 C4.66 3.64 5.32 6.28 6 9 C3.69 7.02 1.38 5.04 -1 3 C-0.67 2.01 -0.34 1.02 0 0 Z " fill="#303F92" transform="translate(572,312)"/>
<path d="M0 0 C1.70884005 1.62339805 3.37446717 3.29319053 5 5 C5 5.66 5 6.32 5 7 C2.625 6.6875 2.625 6.6875 0 6 C-0.66 5.01 -1.32 4.02 -2 3 C-1.34 2.01 -0.68 1.02 0 0 Z " fill="#293B98" transform="translate(603,182)"/>
<path d="M0 0 C0.33 0.66 0.66 1.32 1 2 C1.66 2.144375 2.32 2.28875 3 2.4375 C3.66 2.623125 4.32 2.80875 5 3 C6.04449911 6.13349732 5.93423645 6.98968256 5 10 C0 4.5 0 4.5 0 0 Z " fill="#233694" transform="translate(586,326)"/>
<path d="M0 0 C2.475 0.99 2.475 0.99 5 2 C5 2.66 5 3.32 5 4 C5.66 4.33 6.32 4.66 7 5 C7.625 7.0625 7.625 7.0625 8 9 C6.65826597 8.07456291 5.32679841 7.13422595 4 6.1875 C3.2575 5.66542969 2.515 5.14335937 1.75 4.60546875 C1.1725 4.07566406 0.595 3.54585938 0 3 C0 2.01 0 1.02 0 0 Z " fill="#414F9D" transform="translate(95,287)"/>
<path d="M0 0 C0.99 0 1.98 0 3 0 C3.33 1.98 3.66 3.96 4 6 C2.35 6.33 0.7 6.66 -1 7 C-0.67 4.69 -0.34 2.38 0 0 Z " fill="#2E3E9C" transform="translate(30,285)"/>
<path d="M0 0 C-0.99 0.33 -1.98 0.66 -3 1 C-3 1.66 -3 2.32 -3 3 C-4.98 3.99 -4.98 3.99 -7 5 C-7.33 3.35 -7.66 1.7 -8 0 C-4.94736336 -0.98120464 -3.05263664 -0.98120464 0 0 Z " fill="#192A8E" transform="translate(177,283)"/>
<path d="M0 0 C0.99 0.99 1.98 1.98 3 3 C2.33333333 5 1.66666667 7 1 9 C0.34 8.67 -0.32 8.34 -1 8 C-1.40729228 5.67843403 -1.74438677 3.3431213 -2 1 C-1.67 1.66 -1.34 2.32 -1 3 C-0.67 2.01 -0.34 1.02 0 0 Z " fill="#071D8C" transform="translate(635,238)"/>
<path d="M0 0 C2.97069541 2.54631035 4.4775751 5.42230149 6 9 C5.67 9.66 5.34 10.32 5 11 C4.34 11 3.68 11 3 11 C2.34 9.35 1.68 7.7 1 6 C0.67 6 0.34 6 0 6 C0 4.02 0 2.04 0 0 Z " fill="#43529F" transform="translate(628,221)"/>
<path d="M0 0 C-1.1446875 0.8971875 -1.1446875 0.8971875 -2.3125 1.8125 C-4.91335259 3.84004112 -4.91335259 3.84004112 -6.6875 5.75 C-8 7 -8 7 -10 7 C-9.34 5.68 -8.68 4.36 -8 3 C-7.34 3 -6.68 3 -6 3 C-6.33 2.01 -6.66 1.02 -7 0 C-4.3333581 -1.33332095 -2.83319697 -0.67102033 0 0 Z " fill="#1B2E8A" transform="translate(162,122)"/>
<path d="M0 0 C0.66 0 1.32 0 2 0 C1.38722388 2.96175123 0.74627478 4.38058783 -1 7 C-2.65 6.67 -4.3 6.34 -6 6 C-4 4 -2 2 0 0 Z " fill="#2E4098" transform="translate(152,112)"/>
<path d="M0 0 C3.46941546 0.45822468 6.67395049 0.89131683 10 2 C10 2.66 10 3.32 10 4 C10.66 4.33 11.32 4.66 12 5 C8.62294375 4.46274105 5.303314 3.88935377 2 3 C2 2.34 2 1.68 2 1 C1.34 0.67 0.68 0.34 0 0 Z " fill="#3A4998" transform="translate(422,73)"/>
<path d="M0 0 C0.33 0 0.66 0 1 0 C1 2.64 1 5.28 1 8 C0.01 8.33 -0.98 8.66 -2 9 C-2.66 7.02 -3.32 5.04 -4 3 C-3.01 3 -2.02 3 -1 3 C-0.67 2.01 -0.34 1.02 0 0 Z " fill="#152891" transform="translate(45,492)"/>
<path d="M0 0 C0.66 0 1.32 0 2 0 C3.23076923 5.41538462 3.23076923 5.41538462 2.0625 8.375 C1.711875 8.91125 1.36125 9.4475 1 10 C0.63720544 8.71073008 0.28503302 7.41846728 -0.0625 6.125 C-0.35833984 5.04605469 -0.35833984 5.04605469 -0.66015625 3.9453125 C-1 2 -1 2 0 0 Z " fill="#18298E" transform="translate(636,264)"/>
<path d="M0 0 C0.66 0.33 1.32 0.66 2 1 C1.67 2.32 1.34 3.64 1 5 C0.01 5 -0.98 5 -2 5 C-2.33 6.32 -2.66 7.64 -3 9 C-3.66 8.67 -4.32 8.34 -5 8 C-2.25 1.125 -2.25 1.125 0 0 Z " fill="#091D8F" transform="translate(133,129)"/>
<path d="M0 0 C3.465 1.98 3.465 1.98 7 4 C7 4.66 7 5.32 7 6 C7.66 6.33 8.32 6.66 9 7 C6.32115341 7 4.49664253 6.88590541 2 6 C0 3 0 3 0 0 Z " fill="#2A388F" transform="translate(521,104)"/>
<path d="M0 0 C0.99 0.33 1.98 0.66 3 1 C1.61709171 2.98793067 0.43832802 3.88705658 -1.91015625 4.4921875 C-4.0625 4.8125 -4.0625 4.8125 -8 5 C-8.66 4.34 -9.32 3.68 -10 3 C-8.906875 2.87625 -7.81375 2.7525 -6.6875 2.625 C-2.92618198 2.24535199 -2.92618198 2.24535199 0 0 Z " fill="#091F8D" transform="translate(478,86)"/>
<path d="M0 0 C0.99 0.99 1.98 1.98 3 3 C2.67 3.99 2.34 4.98 2 6 C-1.0625 7.1875 -1.0625 7.1875 -4 8 C-4 7.34 -4 6.68 -4 6 C-3.01 6 -2.02 6 -1 6 C-1 5.34 -1 4.68 -1 4 C-1.66 3.67 -2.32 3.34 -3 3 C-2.01 3 -1.02 3 0 3 C0 2.01 0 1.02 0 0 Z " fill="#2E3E93" transform="translate(190,268)"/>
<path d="M0 0 C0.66 0.33 1.32 0.66 2 1 C1.67 1.99 1.34 2.98 1 4 C1.66 4.33 2.32 4.66 3 5 C1.948125 4.979375 0.89625 4.95875 -0.1875 4.9375 C-3.32704904 4.98896802 -5.96883396 5.26517187 -9 6 C-7.73295613 3.46591226 -6.56876843 3.06790028 -4.0625 1.8125 C-3.35222656 1.44769531 -2.64195312 1.08289063 -1.91015625 0.70703125 C-1.27980469 0.47371094 -0.64945313 0.24039063 0 0 Z " fill="#3E4EA0" transform="translate(187,90)"/>
<path d="M0 0 C3.7910119 1.44950455 7.3874638 3.15172566 11 5 C10.34 5.66 9.68 6.32 9 7 C7.68176698 6.40844669 6.37052949 5.80128537 5.0625 5.1875 C4.33160156 4.85105469 3.60070312 4.51460938 2.84765625 4.16796875 C1 3 1 3 0 0 Z " fill="#2C3A92" transform="translate(483,83)"/>
<path d="M0 0 C0.66 0.33 1.32 0.66 2 1 C1.6875 2.875 1.6875 2.875 1 5 C-2 7 -2 7 -5 7 C-3.70700306 4.11562221 -2.34058637 2.12780579 0 0 Z " fill="#3746A0" transform="translate(297,448)"/>
<path d="M0 0 C0.99 0 1.98 0 3 0 C3 1.98 3 3.96 3 6 C0.03 5.505 0.03 5.505 -3 5 C-1.6875 2.5 -1.6875 2.5 0 0 Z " fill="#0A2194" transform="translate(542,122)"/>
<path d="M0 0 C-0.99 1.485 -0.99 1.485 -2 3 C-4.6015625 3.51171875 -4.6015625 3.51171875 -7.625 3.6875 C-9.12933594 3.78611328 -9.12933594 3.78611328 -10.6640625 3.88671875 C-11.82035156 3.94279297 -11.82035156 3.94279297 -13 4 C-10.56272708 2.37515139 -8.62713877 1.34310925 -5.9375 0.3125 C-5.24527344 0.04050781 -4.55304688 -0.23148437 -3.83984375 -0.51171875 C-2 -1 -2 -1 0 0 Z " fill="#41539F" transform="translate(231,72)"/>
<path d="M0 0 C0.33 0.99 0.66 1.98 1 3 C-0.65 4.65 -2.3 6.3 -4 8 C-4.99 7.67 -5.98 7.34 -7 7 C-4.69 4.69 -2.38 2.38 0 0 Z " fill="#3D3D40" transform="translate(143,320)"/>
<path d="M0 0 C0 4.38968456 -2.12805101 5.76905739 -5 9 C-6.32 8.67 -7.64 8.34 -9 8 C-6.03 5.36 -3.06 2.72 0 0 Z " fill="#313032" transform="translate(153,311)"/>
<path d="M0 0 C0.66 0.33 1.32 0.66 2 1 C-0.31 3.31 -2.62 5.62 -5 8 C-5.99 7.67 -6.98 7.34 -8 7 C-5.36 4.69 -2.72 2.38 0 0 Z " fill="#CAD3EE" transform="translate(158,297)"/>
<path d="M0 0 C0 3 0 3 -1 5 C-1.99 5 -2.98 5 -4 5 C-4.33 5.99 -4.66 6.98 -5 8 C-5.99 7.67 -6.98 7.34 -8 7 C-6.71034824 5.62437146 -5.37310707 4.29233607 -4 3 C-3.34 3 -2.68 3 -2 3 C-2 2.34 -2 1.68 -2 1 C-1.34 0.67 -0.68 0.34 0 0 Z " fill="#42509E" transform="translate(130,130)"/>
<path d="M0 0 C-5.445 2.475 -5.445 2.475 -11 5 C-11 3.68 -11 2.36 -11 1 C-9.5437328 0.63743142 -8.08488815 0.28520207 -6.625 -0.0625 C-5.40683594 -0.35833984 -5.40683594 -0.35833984 -4.1640625 -0.66015625 C-2 -1 -2 -1 0 0 Z " fill="#31449A" transform="translate(200,100)"/>
<path d="M0 0 C2.875 0.625 2.875 0.625 6 2 C7.375 5.125 7.375 5.125 8 8 C6.85073734 7.04578192 5.70569459 6.08647955 4.5625 5.125 C3.92441406 4.59132813 3.28632812 4.05765625 2.62890625 3.5078125 C1 2 1 2 0 0 Z " fill="#42509D" transform="translate(111,304)"/>
<path d="M0 0 C2.37783838 2.37783838 2.59009208 3.72073665 3 7 C2.67 7.66 2.34 8.32 2 9 C1.34 9 0.68 9 0 9 C-1.125 2.25 -1.125 2.25 0 0 Z " fill="#2B3E99" transform="translate(634,232)"/>
<path d="M0 0 C0.99 0.33 1.98 0.66 3 1 C2.34 2.32 1.68 3.64 1 5 C0.34 5 -0.32 5 -1 5 C-1 5.66 -1 6.32 -1 7 C-1.66 7 -2.32 7 -3 7 C-3 6.01 -3 5.02 -3 4 C-2.34 3.67 -1.68 3.34 -1 3 C-0.67 2.01 -0.34 1.02 0 0 Z " fill="#223295" transform="translate(137,137)"/>
<path d="M0 0 C1.32 0.33 2.64 0.66 4 1 C1.36 2.98 -1.28 4.96 -4 7 C-4.33 6.01 -4.66 5.02 -5 4 C-4.01 4 -3.02 4 -2 4 C-1.34 2.68 -0.68 1.36 0 0 Z " fill="#24348E" transform="translate(146,131)"/>
<path d="M0 0 C0.33 0 0.66 0 1 0 C1.34833144 4.87664009 0.41685712 7.77050005 -2 12 C-2.66 11.01 -3.32 10.02 -4 9 C-3.2884375 7.88625 -3.2884375 7.88625 -2.5625 6.75 C-1.22130673 4.38949985 -0.487688 2.63351523 0 0 Z " fill="#3A4A97" transform="translate(441,458)"/>
<path d="M0 0 C1.32 0 2.64 0 4 0 C3.67 1.98 3.34 3.96 3 6 C2.01 6 1.02 6 0 6 C-1.24546405 3.50907189 -0.7767578 2.58919267 0 0 Z " fill="#051C90" transform="translate(629,244)"/>
<path d="M0 0 C-0.66 1.32 -1.32 2.64 -2 4 C-2.33 3.34 -2.66 2.68 -3 2 C-5.31 2.33 -7.62 2.66 -10 3 C-6.84916414 -0.15083586 -4.41812253 0 0 0 Z " fill="#2B3E99" transform="translate(248,66)"/>
<path d="M0 0 C3.3 0.33 6.6 0.66 10 1 C10 1.33 10 1.66 10 2 C6.37 2.33 2.74 2.66 -1 3 C-0.67 2.01 -0.34 1.02 0 0 Z " fill="#2E3D92" transform="translate(622,371)"/>
<path d="M0 0 C2.35448165 2.55068845 2.98327924 3.71017358 3.1875 7.25 C3.125625 8.1575 3.06375 9.065 3 10 C0.3144406 7.3144406 -0.06049974 4.62378672 -1 1 C-0.67 0.67 -0.34 0.34 0 0 Z " fill="#22338C" transform="translate(632,256)"/>
<path d="M0 0 C0.99 0.99 1.98 1.98 3 3 C2.67 3.99 2.34 4.98 2 6 C-0.0625 6.6875 -0.0625 6.6875 -2 7 C-2 5.35 -2 3.7 -2 2 C-1.34 2 -0.68 2 0 2 C0 1.34 0 0.68 0 0 Z " fill="#22389F" transform="translate(170,248)"/>
<path d="M0 0 C2.64 0.33 5.28 0.66 8 1 C7.67 2.32 7.34 3.64 7 5 C4.11562221 3.70700306 2.12780579 2.34058637 0 0 Z " fill="#324296" transform="translate(525,123)"/>
<path d="M0 0 C2.92879371 0.62759865 5.36095629 1.58622659 8 3 C8 3.66 8 4.32 8 5 C2.25 3.125 2.25 3.125 0 2 C0 1.34 0 0.68 0 0 Z " fill="#2D3E92" transform="translate(480,95)"/>
<path d="M0 0 C0 0.66 0 1.32 0 2 C-2.14720899 4.14720899 -3.07790143 4.5434221 -6 5 C-6.66 4.67 -7.32 4.34 -8 4 C-2.25 0 -2.25 0 0 0 Z " fill="#404040" transform="translate(264,578)"/>
<path d="M0 0 C0.66 0.33 1.32 0.66 2 1 C2.125 3.875 2.125 3.875 2 7 C1.34 7.66 0.68 8.32 0 9 C0.04125 8.21625 0.0825 7.4325 0.125 6.625 C0.28728734 3.83883881 0.28728734 3.83883881 -2 2 C-1.34 1.34 -0.68 0.68 0 0 Z " fill="#0D2188" transform="translate(316,461)"/>
<path d="M0 0 C0 1.32 0 2.64 0 4 C-1.65 4.33 -3.3 4.66 -5 5 C-4.625 3.0625 -4.625 3.0625 -4 1 C-2 0 -2 0 0 0 Z " fill="#273791" transform="translate(423,447)"/>
<path d="M0 0 C0.99 0.66 1.98 1.32 3 2 C1.625 4 1.625 4 0 6 C-0.66 6 -1.32 6 -2 6 C-1.125 1.125 -1.125 1.125 0 0 Z " fill="#0A0A0A" transform="translate(139,426)"/>
<path d="M0 0 C3.82946843 1.45255699 5.12050295 3.42895561 7 7 C4.13302508 5.71480435 2.02392288 4.42870746 0 2 C0 1.34 0 0.68 0 0 Z " fill="#112284" transform="translate(578,319)"/>
<path d="M0 0 C0.66 0.33 1.32 0.66 2 1 C-0.3125 3.5 -0.3125 3.5 -3 6 C-3.99 6 -4.98 6 -6 6 C-4.71034824 4.62437146 -3.37310707 3.29233607 -2 2 C-1.34 2 -0.68 2 0 2 C0 1.34 0 0.68 0 0 Z " fill="#C7CDEB" transform="translate(174,284)"/>
<path d="M0 0 C0.66 0 1.32 0 2 0 C1.745504 1.48206495 1.47088238 2.96068615 1.1875 4.4375 C1.03667969 5.26121094 0.88585938 6.08492188 0.73046875 6.93359375 C0.48941406 7.61550781 0.24835937 8.29742187 0 9 C-0.99 9.33 -1.98 9.66 -3 10 C-2.01 6.7 -1.02 3.4 0 0 Z " fill="#0A1D86" transform="translate(35,274)"/>
<path d="M0 0 C2.4375 0.625 2.4375 0.625 5 2 C5.8125 5.125 5.8125 5.125 6 8 C4.62437146 6.71034824 3.29233607 5.37310707 2 4 C2 3.34 2 2.68 2 2 C1.34 2 0.68 2 0 2 C0 1.34 0 0.68 0 0 Z " fill="#414F9E" transform="translate(582,176)"/>
<path d="M0 0 C1.98 0 3.96 0 6 0 C6 0.66 6 1.32 6 2 C4.35 2.66 2.7 3.32 1 4 C0.67 2.68 0.34 1.36 0 0 Z " fill="#1A2D8C" transform="translate(162,117)"/>
<path d="M0 0 C5.75 -0.125 5.75 -0.125 8 1 C8 1.66 8 2.32 8 3 C5.6568787 2.74438677 3.32156597 2.40729228 1 2 C0.67 1.34 0.34 0.68 0 0 Z " fill="#4653A0" transform="translate(450,83)"/>
</svg>
